<svg xmlns="http://www.w3.org/2000/svg" width="256" height="256" viewBox="0 0 100 100"><rect width="100" height="100" rx="20" fill="#ffffff"></rect><path d="M52.38 28.54L52.38 28.54Q52.38 29.62 51.80 31.37Q51.21 33.13 49.46 36.50Q47.70 39.88 44.55 45.28Q41.41 50.68 36.27 58.95L36.27 58.95L36.27 76.59Q35.28 76.87 33.26 77.14Q31.24 77.41 29.17 77.41L29.17 77.41Q24.49 77.41 22.69 75.78Q20.89 74.17 20.89 70.12L20.89 70.12L20.89 58.69Q18.55 55.36 15.85 51.08Q13.15 46.81 10.54 42.35Q7.93 37.90 5.72 33.67Q3.52 29.44 2.26 26.20L2.26 26.20Q3.43 24.58 5.45 23.23Q7.48 21.88 10.45 21.88L10.45 21.88Q13.96 21.88 16.16 23.32Q18.37 24.76 20.35 28.72L20.35 28.72L28.27 44.65L28.81 44.65Q30.07 41.86 31.10 39.43Q32.13 37.00 33.13 34.52Q34.12 32.05 35.15 29.44Q36.18 26.83 37.45 23.59L37.45 23.59Q39.06 22.78 41.05 22.33Q43.02 21.88 44.82 21.88L44.82 21.88Q47.98 21.88 50.18 23.54Q52.38 25.21 52.38 28.54ZM76.86 66.97L76.86 66.97Q78.39 66.97 80.24 66.65Q82.08 66.34 82.98 65.80L82.98 65.80L82.98 58.59L76.50 59.14Q73.98 59.31 72.36 60.22Q70.75 61.12 70.75 62.92L70.75 62.92Q70.75 64.72 72.14 65.84Q73.53 66.97 76.86 66.97ZM76.14 31.60L76.14 31.60Q81.00 31.60 85.01 32.59Q89.01 33.58 91.85 35.60Q94.69 37.63 96.22 40.73Q97.75 43.84 97.75 48.07L97.75 48.07L97.75 68.23Q97.75 70.56 96.44 72.05Q95.13 73.53 93.33 74.62L93.33 74.62Q87.48 78.13 76.86 78.13L76.86 78.13Q72.09 78.13 68.27 77.23Q64.44 76.33 61.70 74.53Q58.95 72.73 57.47 69.94Q55.98 67.15 55.98 63.46L55.98 63.46Q55.98 57.25 59.67 53.92Q63.36 50.59 71.10 49.78L71.10 49.78L82.89 48.52L82.89 47.89Q82.89 45.28 80.60 44.15Q78.30 43.03 73.98 43.03L73.98 43.03Q70.66 43.03 67.37 43.75Q64.08 44.47 61.47 45.55L61.47 45.55Q60.30 44.73 59.49 43.07Q58.68 41.41 58.68 39.61L58.68 39.61Q58.68 37.27 59.81 35.87Q60.93 34.48 63.27 33.49L63.27 33.49Q65.88 32.50 69.44 32.05Q72.99 31.60 76.14 31.60Z" fill="#d0021b"></path></svg>